<svg width="40" height="40" viewBox="0 0 40 40" fill="none" xmlns="http://www.w3.org/2000/svg">
<g id="certificate-icon">
<path id="Vector" d="M21.6667 35L25 33.3333L28.3334 35V23.3333H21.6667M28.3334 15V11.6667L25 13.3333L21.6667 11.6667V15L18.3334 16.6667L21.6667 18.3333V21.6667L25 20L28.3334 21.6667V18.3333L31.6667 16.6667M33.3334 5H6.66671C5.78265 5 4.93481 5.35119 4.30968 5.97631C3.68456 6.60143 3.33337 7.44928 3.33337 8.33333V25C3.33337 25.8841 3.68456 26.7319 4.30968 27.357C4.93481 27.9821 5.78265 28.3333 6.66671 28.3333H18.3334V25H6.66671V8.33333H33.3334V25H31.6667V28.3333H33.3334C34.2174 28.3333 35.0653 27.9821 35.6904 27.357C36.3155 26.7319 36.6667 25.8841 36.6667 25V8.33333C36.6667 7.44928 36.3155 6.60143 35.6904 5.97631C35.0653 5.35119 34.2174 5 33.3334 5ZM18.3334 13.3333H8.33337V10H18.3334M15 18.3333H8.33337V15H15M18.3334 23.3333H8.33337V20H18.3334V23.3333Z" fill="#F47676"/>
</g>
</svg>
