<svg width="24" height="24" viewBox="0 0 24 24" fill="none" xmlns="http://www.w3.org/2000/svg">
<g id="ph:download-bold">
<path id="Vector" d="M6.70406 8.29594C6.49272 8.08459 6.37399 7.79795 6.37399 7.49906C6.37399 7.20018 6.49272 6.91353 6.70406 6.70219C6.91541 6.49084 7.20205 6.37211 7.50094 6.37211C7.79982 6.37211 8.08647 6.49084 8.29781 6.70219L10.875 9.28125V2.25C10.875 1.95163 10.9935 1.66548 11.2045 1.4545C11.4155 1.24353 11.7016 1.125 12 1.125C12.2984 1.125 12.5845 1.24353 12.7955 1.4545C13.0065 1.66548 13.125 1.95163 13.125 2.25V9.28125L15.7041 6.70125C15.9154 6.48991 16.2021 6.37117 16.5009 6.37117C16.7998 6.37117 17.0865 6.48991 17.2978 6.70125C17.5092 6.91259 17.6279 7.19924 17.6279 7.49813C17.6279 7.79701 17.5092 8.08366 17.2978 8.295L12.7978 12.795C12.6933 12.8999 12.5691 12.9831 12.4324 13.0399C12.2956 13.0967 12.149 13.1259 12.0009 13.1259C11.8529 13.1259 11.7063 13.0967 11.5695 13.0399C11.4328 12.9831 11.3086 12.8999 11.2041 12.795L6.70406 8.29594ZM21 10.875H17.625C17.3266 10.875 17.0405 10.9935 16.8295 11.2045C16.6185 11.4155 16.5 11.7016 16.5 12C16.5 12.2984 16.6185 12.5845 16.8295 12.7955C17.0405 13.0065 17.3266 13.125 17.625 13.125H20.625V18.375H3.375V13.125H6.375C6.67337 13.125 6.95952 13.0065 7.1705 12.7955C7.38147 12.5845 7.5 12.2984 7.5 12C7.5 11.7016 7.38147 11.4155 7.1705 11.2045C6.95952 10.9935 6.67337 10.875 6.375 10.875H3C2.50272 10.875 2.02581 11.0725 1.67417 11.4242C1.32254 11.7758 1.125 12.2527 1.125 12.75V18.75C1.125 19.2473 1.32254 19.7242 1.67417 20.0758C2.02581 20.4275 2.50272 20.625 3 20.625H21C21.4973 20.625 21.9742 20.4275 22.3258 20.0758C22.6775 19.7242 22.875 19.2473 22.875 18.75V12.75C22.875 12.2527 22.6775 11.7758 22.3258 11.4242C21.9742 11.0725 21.4973 10.875 21 10.875ZM19.125 15.75C19.125 15.4533 19.037 15.1633 18.8722 14.9166C18.7074 14.67 18.4731 14.4777 18.199 14.3642C17.9249 14.2506 17.6233 14.2209 17.3324 14.2788C17.0414 14.3367 16.7741 14.4796 16.5643 14.6893C16.3546 14.8991 16.2117 15.1664 16.1538 15.4574C16.0959 15.7483 16.1256 16.0499 16.2392 16.324C16.3527 16.5981 16.545 16.8324 16.7916 16.9972C17.0383 17.162 17.3283 17.25 17.625 17.25C18.0228 17.25 18.4044 17.092 18.6857 16.8107C18.967 16.5294 19.125 16.1478 19.125 15.75Z" fill="white"/>
</g>
</svg>
