<svg width="40" height="40" viewBox="0 0 40 40" fill="none" xmlns="http://www.w3.org/2000/svg">
<g id="project-icon">
<path id="Vector" d="M25 6.66665H9.99996V33.3333H30V11.6666H25V6.66665ZM9.99996 3.33331H26.6666L33.3333 9.99998V33.3333C33.3333 34.2174 32.9821 35.0652 32.357 35.6903C31.7319 36.3155 30.884 36.6666 30 36.6666H9.99996C9.1159 36.6666 8.26806 36.3155 7.64294 35.6903C7.01782 35.0652 6.66663 34.2174 6.66663 33.3333V6.66665C6.66663 5.78259 7.01782 4.93474 7.64294 4.30962C8.26806 3.6845 9.1159 3.33331 9.99996 3.33331ZM13.3333 18.3333H26.6666V21.6666H13.3333V18.3333ZM13.3333 25H26.6666V28.3333H13.3333V25Z" fill="#F47676"/>
</g>
</svg>
