<svg width="24" height="24" viewBox="0 0 24 24" fill="none" xmlns="http://www.w3.org/2000/svg">
<g id="uiw:copyright" clip-path="url(#clip0_122_80)">
<path id="Vector" d="M12 0C18.6276 0 24 5.3724 24 12C24 18.6276 18.6276 24 12 24C5.3724 24 0 18.6276 0 12C0 5.3724 5.3724 0 12 0ZM12 1.674C9.26137 1.674 6.63492 2.76191 4.69842 4.69842C2.76191 6.63492 1.674 9.26137 1.674 12C1.674 14.7386 2.76191 17.3651 4.69842 19.3016C6.63492 21.2381 9.26137 22.326 12 22.326C14.7386 22.326 17.3651 21.2381 19.3016 19.3016C21.2381 17.3651 22.326 14.7386 22.326 12C22.326 9.26137 21.2381 6.63492 19.3016 4.69842C17.3651 2.76191 14.7386 1.674 12 1.674ZM12.192 5.5812C13.488 5.5812 14.7324 5.9448 15.7956 6.618C15.9728 6.74116 16.0956 6.92795 16.1385 7.13943C16.1813 7.35092 16.1409 7.57079 16.0256 7.7532C15.9104 7.93562 15.7291 8.06652 15.5197 8.1186C15.3103 8.17069 15.0889 8.13996 14.9016 8.0328C14.0907 7.52246 13.1514 7.25319 12.1932 7.2564C9.4596 7.2564 7.2564 9.3864 7.2564 12C7.2564 14.6136 9.4596 16.7436 12.1932 16.7436C13.1544 16.7436 14.0736 16.4796 14.862 15.9912C14.9555 15.9333 15.0595 15.8944 15.1681 15.8766C15.2767 15.8589 15.3877 15.8628 15.4948 15.888C15.6019 15.9131 15.7029 15.9592 15.7922 16.0234C15.8815 16.0877 15.9573 16.1689 16.0152 16.2624C16.0731 16.3559 16.112 16.4599 16.1298 16.5685C16.1475 16.6771 16.1436 16.7881 16.1184 16.8952C16.0933 17.0023 16.0472 17.1033 15.983 17.1926C15.9187 17.2819 15.8375 17.3577 15.744 17.4156C14.6766 18.0745 13.4464 18.422 12.192 18.4188C8.5476 18.4188 5.5812 15.5508 5.5812 12C5.5812 8.448 8.5476 5.5812 12.1932 5.5812H12.192Z" fill="white"/>
</g>
<defs>
<clipPath id="clip0_122_80">
<rect width="24" height="24" fill="white"/>
</clipPath>
</defs>
</svg>
