<svg width="42" height="48" viewBox="0 0 42 48" fill="none" xmlns="http://www.w3.org/2000/svg">
<path d="M16.9969 3.03748C18.6281 3.30936 19.7344 4.85623 19.4625 6.48748L18.5438 12H27.4594L28.5375 5.50311C28.8094 3.87186 30.3563 2.76561 31.9875 3.03748C33.6188 3.30936 34.725 4.85623 34.4531 6.48748L33.5437 12H39C40.6594 12 42 13.3406 42 15C42 16.6594 40.6594 18 39 18H32.5406L30.5437 30H36C37.6594 30 39 31.3406 39 33C39 34.6594 37.6594 36 36 36H29.5406L28.4625 42.4969C28.1906 44.1281 26.6437 45.2344 25.0125 44.9625C23.3812 44.6906 22.275 43.1437 22.5469 41.5125L23.4656 36.0094H14.5406L13.4625 42.5062C13.1906 44.1375 11.6438 45.2437 10.0125 44.9719C8.38125 44.7 7.275 43.1531 7.54688 41.5219L8.45625 36H3C1.34062 36 0 34.6594 0 33C0 31.3406 1.34062 30 3 30H9.45938L11.4562 18H6C4.34062 18 3 16.6594 3 15C3 13.3406 4.34062 12 6 12H12.4594L13.5375 5.50311C13.8094 3.87186 15.3562 2.76561 16.9875 3.03748H16.9969ZM17.5406 18L15.5438 30H24.4594L26.4563 18H17.5406Z" fill="#E8B687"/>
</svg>
