<svg width="32" height="32" viewBox="0 0 32 32" fill="none" xmlns="http://www.w3.org/2000/svg">
<g clip-path="url(#clip0_163_47)">
<path d="M14.5115 3.78823C15.6525 3.95882 16.4263 4.92941 16.2361 5.95294L15.5935 9.41176H21.8295L22.5836 5.33529C22.7738 4.31176 23.8558 3.61764 24.9968 3.78823C26.1377 3.95882 26.9115 4.92941 26.7213 5.95294L26.0853 9.41176H29.9017C31.0623 9.41176 32 10.2529 32 11.2941C32 12.3353 31.0623 13.1765 29.9017 13.1765H25.3836L23.9869 20.7059H27.8033C28.964 20.7059 29.9017 21.5471 29.9017 22.5882C29.9017 23.6294 28.964 24.4706 27.8033 24.4706H23.2853L22.5312 28.5471C22.341 29.5706 21.259 30.2647 20.1181 30.0941C18.9771 29.9235 18.2033 28.953 18.3935 27.9294L19.0361 24.4765H12.7935L12.0394 28.553C11.8492 29.5765 10.7672 30.2706 9.62626 30.1C8.48528 29.9294 7.71151 28.9588 7.90167 27.9353L8.53774 24.4706H4.72135C3.56069 24.4706 2.62299 23.6294 2.62299 22.5882C2.62299 21.5471 3.56069 20.7059 4.72135 20.7059H9.23938L10.6361 13.1765H6.81971C5.65905 13.1765 4.72135 12.3353 4.72135 11.2941C4.72135 10.2529 5.65905 9.41176 6.81971 9.41176H11.3377L12.0918 5.33529C12.282 4.31176 13.364 3.61764 14.505 3.78823H14.5115ZM14.8918 13.1765L13.4951 20.7059H19.7312L21.1279 13.1765H14.8918Z" fill="#32334C"/>
</g>
<g clip-path="url(#clip1_163_47)">
<path d="M11.8885 1.90591C13.0295 2.07649 13.8033 3.04708 13.6131 4.07061L12.9705 7.52944H19.2066L19.9607 3.45297C20.1508 2.42944 21.2328 1.73532 22.3738 1.90591C23.5148 2.07649 24.2885 3.04708 24.0984 4.07061L23.4623 7.52944H27.2787C28.4393 7.52944 29.377 8.37062 29.377 9.41179C29.377 10.453 28.4393 11.2941 27.2787 11.2941H22.7607L21.3639 18.8236H25.1803C26.341 18.8236 27.2787 19.6647 27.2787 20.7059C27.2787 21.7471 26.341 22.5883 25.1803 22.5883H20.6623L19.9082 26.6647C19.718 27.6883 18.6361 28.3824 17.4951 28.2118C16.3541 28.0412 15.5803 27.0706 15.7705 26.0471L16.4131 22.5942H10.1705L9.41639 26.6706C9.22623 27.6942 8.14426 28.3883 7.00328 28.2177C5.86229 28.0471 5.08852 27.0765 5.27869 26.053L5.91475 22.5883H2.09836C0.937705 22.5883 0 21.7471 0 20.7059C0 19.6647 0.937705 18.8236 2.09836 18.8236H6.61639L8.01311 11.2941H4.19672C3.03607 11.2941 2.09836 10.453 2.09836 9.41179C2.09836 8.37062 3.03607 7.52944 4.19672 7.52944H8.71475L9.46885 3.45297C9.65901 2.42944 10.741 1.73532 11.882 1.90591H11.8885ZM12.2689 11.2941L10.8721 18.8236H17.1082L18.5049 11.2941H12.2689Z" fill="#E8B687"/>
</g>
<defs>
<clipPath id="clip0_163_47">
<rect width="29.377" height="30.1177" fill="white" transform="translate(2.62299 1.88232)"/>
</clipPath>
<clipPath id="clip1_163_47">
<rect width="29.377" height="30.1177" fill="white"/>
</clipPath>
</defs>
</svg>
