<svg width="32" height="32" viewBox="0 0 32 32" fill="none" xmlns="http://www.w3.org/2000/svg">
<g clip-path="url(#clip0_163_46)">
<path d="M14.9766 3.78823C16.0872 3.95882 16.8404 4.92941 16.6553 5.95294L16.0298 9.41176H22.1L22.834 5.33529C23.0191 4.31176 24.0723 3.61764 25.183 3.78823C26.2936 3.95882 27.0468 4.92941 26.8617 5.95294L26.2425 9.41176H29.9574C31.0872 9.41176 32 10.2529 32 11.2941C32 12.3353 31.0872 13.1765 29.9574 13.1765H25.5596L24.2 20.7059H27.9149C29.0447 20.7059 29.9574 21.5471 29.9574 22.5882C29.9574 23.6294 29.0447 24.4706 27.9149 24.4706H23.517L22.783 28.5471C22.5979 29.5706 21.5447 30.2647 20.434 30.0941C19.3234 29.9235 18.5702 28.9529 18.7553 27.9294L19.3808 24.4765H13.3042L12.5702 28.5529C12.3851 29.5765 11.3319 30.2706 10.2213 30.1C9.11062 29.9294 8.35743 28.9588 8.54253 27.9353L9.16168 24.4706H5.44679C4.317 24.4706 3.40424 23.6294 3.40424 22.5882C3.40424 21.5471 4.317 20.7059 5.44679 20.7059H9.84466L11.2042 13.1765H7.48934C6.35955 13.1765 5.44679 12.3353 5.44679 11.2941C5.44679 10.2529 6.35955 9.41176 7.48934 9.41176H11.8872L12.6213 5.33529C12.8064 4.31176 13.8596 3.61764 14.9702 3.78823H14.9766ZM15.3468 13.1765L13.9872 20.7059H20.0574L21.417 13.1765H15.3468Z" fill="#F47676"/>
</g>
<g clip-path="url(#clip1_163_46)">
<path d="M11.5723 1.90591C12.683 2.07649 13.4362 3.04708 13.2511 4.07061L12.6255 7.52944H18.6957L19.4298 3.45296C19.6149 2.42944 20.6681 1.73532 21.7787 1.90591C22.8894 2.07649 23.6426 3.04708 23.4574 4.07061L22.8383 7.52944H26.5532C27.683 7.52944 28.5957 8.37061 28.5957 9.41179C28.5957 10.453 27.683 11.2941 26.5532 11.2941H22.1553L20.7957 18.8236H24.5106C25.6404 18.8236 26.5532 19.6647 26.5532 20.7059C26.5532 21.7471 25.6404 22.5883 24.5106 22.5883H20.1128L19.3787 26.6647C19.1936 27.6883 18.1404 28.3824 17.0298 28.2118C15.9191 28.0412 15.166 27.0706 15.3511 26.0471L15.9766 22.5941H9.9L9.16596 26.6706C8.98085 27.6941 7.92766 28.3883 6.81702 28.2177C5.70638 28.0471 4.95319 27.0765 5.1383 26.053L5.75745 22.5883H2.04255C0.912766 22.5883 0 21.7471 0 20.7059C0 19.6647 0.912766 18.8236 2.04255 18.8236H6.44043L7.8 11.2941H4.08511C2.95532 11.2941 2.04255 10.453 2.04255 9.41179C2.04255 8.37061 2.95532 7.52944 4.08511 7.52944H8.48298L9.21702 3.45296C9.40213 2.42944 10.4553 1.73532 11.566 1.90591H11.5723ZM11.9426 11.2941L10.583 18.8236H16.6532L18.0128 11.2941H11.9426Z" fill="#E8B687"/>
</g>
<defs>
<clipPath id="clip0_163_46">
<rect width="28.5957" height="30.1176" fill="white" transform="translate(3.40424 1.88232)"/>
</clipPath>
<clipPath id="clip1_163_46">
<rect width="28.5957" height="30.1176" fill="white"/>
</clipPath>
</defs>
</svg>
