<svg width="48" height="48" viewBox="0 0 48 48" fill="none" xmlns="http://www.w3.org/2000/svg">
<g clip-path="url(#clip0_162_38)">
<path d="M22.2713 0.0570045C22.0898 0.0761295 21.5232 0.143255 21.0233 0.20213C19.008 0.432004 16.7228 1.03725 14.7173 1.88213C7.45915 4.91475 1.99653 11.5684 0.489401 19.2C0.134651 21.015 0.0484009 21.9068 0.0484009 24C0.0484009 26.6981 0.316526 28.56 1.02715 30.9128C3.35028 38.6115 9.39828 44.6498 17.1169 46.9819C19.44 47.6835 21.312 47.9516 24 47.9516C26.6982 47.9516 28.56 47.6835 30.9128 46.9729C38.6115 44.6498 44.6498 38.6018 46.9819 30.8831C47.6835 28.56 47.9517 26.688 47.9517 24C47.9517 22.8574 47.8947 21.5524 47.8272 21.0716C47.0494 15.5231 44.7642 10.8574 40.9542 7.04588C37.1513 3.26363 32.505 0.969754 27.0713 0.192005C26.3228 0.0862545 22.857 -0.0104955 22.2713 0.0570045ZM14.4477 15.177C14.9577 15.3308 15.1962 15.4748 15.5419 15.8201C16.2143 16.5026 16.368 16.8765 16.368 17.9033C16.368 18.6724 16.3388 18.816 16.1089 19.2188C15.6664 19.9673 14.6397 20.6588 13.9294 20.6775C13.4295 20.688 13.4502 20.4668 13.9969 19.8911C14.7263 19.1325 14.8316 18.8449 14.8316 17.7113C14.8226 16.6174 14.688 16.2435 14.1795 15.936C13.7565 15.6769 13.2964 15.696 12.624 16.0121C10.8765 16.8484 8.9854 19.632 8.24703 22.4839C7.26715 26.2853 9.00453 29.3276 11.8654 28.809C12.7002 28.6553 14.2748 27.8498 14.9577 27.2153C15.5232 26.6981 15.5232 26.688 15.5802 26.0453C15.7062 24.7001 16.6553 23.3569 17.9239 22.7329C18.5082 22.4441 18.6533 22.4164 19.44 22.4164C20.1885 22.4164 20.3614 22.4546 20.7263 22.6553C21.8877 23.319 21.6477 24.864 20.3907 24.864C19.6613 24.864 19.2863 24.489 19.815 24.2888C20.3337 24.0968 20.1402 23.376 19.5368 23.2133C18.8262 23.0303 18.0192 23.5106 17.5107 24.432C16.8957 25.5458 16.8675 26.871 17.4522 27.4748C18.0192 28.0796 18.7294 27.6008 19.2773 26.2264C19.5645 25.5263 19.9774 25.1513 20.4582 25.1513C20.88 25.1513 20.9576 25.4108 20.7743 26.1986C20.505 27.4174 20.688 27.7339 21.4467 27.3604C21.6957 27.2445 22.1089 26.9768 22.3579 26.7848L22.8282 26.4098L23.1462 24.7485C23.4919 22.8866 23.625 22.6361 24.3357 22.503C25.0182 22.377 25.1719 22.7138 24.9214 23.7788L24.7864 24.375L25.2863 23.865C26.4668 22.6553 27.9169 22.0605 28.4164 22.56C28.6845 22.8281 28.6553 23.1649 28.2717 24.3544C28.0898 24.9214 27.8393 25.815 27.7253 26.3231C27.5524 27.0908 27.5419 27.2738 27.639 27.3986C27.9465 27.7631 28.8867 27.3881 29.7218 26.5721L30.2112 26.0933L30.2697 25.0268C30.3267 23.7979 30.441 23.3569 30.7677 22.9628C31.0752 22.5983 31.632 22.3301 31.9294 22.4063C32.2268 22.4839 32.2268 22.7711 31.9587 23.6164C31.5837 24.7778 31.623 27.4556 32.007 27.4556C32.1608 27.4556 32.9472 26.6306 33.447 25.9395L33.8205 25.4295L33.5232 25.1235C33.0045 24.576 32.88 24.2213 32.88 23.3276C32.88 22.6759 32.9284 22.4355 33.0908 22.1175C33.3604 21.6195 33.7823 21.255 34.2818 21.1099C34.809 20.9471 35.4623 21.2153 35.7304 21.6956C36 22.185 35.9329 23.2793 35.5868 24.0293L35.3378 24.5756H35.6734C36.1347 24.5756 36.3165 24.4613 37.1427 23.6835C37.5747 23.2706 38.0742 22.9148 38.4477 22.7419C39.9169 22.0519 41.6457 22.4063 41.9325 23.4623C42.1725 24.3075 41.6457 24.9023 40.7228 24.8348C40.0605 24.7868 39.936 24.6135 40.32 24.2888C41.0112 23.7113 40.32 22.9733 39.3312 23.2414C38.7934 23.3861 38.1885 23.9899 37.8724 24.6915C37.2379 26.0933 37.5747 27.744 38.4859 27.744C38.8508 27.744 39.495 27.0236 39.744 26.3231C40.0414 25.5161 40.6654 25.008 41.1357 25.1906C41.3952 25.2863 41.4143 25.5454 41.2515 26.3614C41.0685 27.255 41.0404 28.0901 41.184 28.4738C41.2414 28.617 41.4143 28.8866 41.5782 29.0685C41.8842 29.4139 41.8947 29.5388 41.6352 29.7026C41.5107 29.7889 41.3464 29.751 40.944 29.5301C40.3872 29.2414 39.9068 28.7228 39.7339 28.2334L39.6285 27.9461L39.2445 28.2334C39.0233 28.3871 38.6779 28.56 38.4769 28.617C37.68 28.8281 36.7002 28.2818 36.2404 27.3604C36.057 27.0041 36 25.9586 36.1347 25.5555C36.2112 25.3343 36.2112 25.3343 35.9033 25.488C35.7409 25.5746 35.3952 25.6699 35.127 25.6991C34.6845 25.7479 34.617 25.7959 34.1764 26.3524C33.5524 27.1286 32.4477 28.1764 31.9965 28.3976C31.0373 28.8765 30.7208 28.7419 30.4703 27.7526L30.2974 27.0908L29.8842 27.4556C29.3569 27.9169 28.3009 28.4738 27.6957 28.6084C27.12 28.7329 26.505 28.5499 26.2557 28.1659C25.8825 27.5903 26.007 26.3715 26.6014 24.7294C27.0424 23.5106 26.7263 23.4919 25.6129 24.6533C24.7868 25.5263 24.432 26.1503 24.2022 27.12C23.9622 28.128 23.6734 28.4925 23.0216 28.6463C22.6275 28.7329 22.4441 28.4925 22.5221 27.9653L22.5791 27.5419L22.2143 27.7924C21.6956 28.1471 21.0424 28.4738 20.5913 28.5983C20.1402 28.7228 19.5454 28.5893 19.4018 28.3388C19.1426 27.8981 19.1427 27.8981 18.7399 28.2143C17.8654 28.9249 16.6174 28.7228 15.9844 27.7823L15.7819 27.4849L15.1493 28.0706C13.3241 29.7409 11.0404 30.4894 9.35028 29.9708C7.19965 29.319 6.01015 27.4748 6.02928 24.816C6.03828 22.1471 7.21878 19.3346 9.20665 17.2515C10.3302 16.0796 11.3861 15.3881 12.4616 15.129C13.2379 14.937 13.7097 14.9468 14.4477 15.177Z" fill="#00C4CC"/>
<path d="M33.9068 22.0035C33.6956 22.2143 33.7733 23.0595 34.0418 23.5973C34.1764 23.8755 34.32 24.0968 34.368 24.0968C34.4063 24.0968 34.4925 23.8755 34.56 23.6059C34.8 22.6084 34.368 21.5419 33.9068 22.0035Z" fill="#00C4CC"/>
</g>
<defs>
<clipPath id="clip0_162_38">
<rect width="48" height="48" fill="white"/>
</clipPath>
</defs>
</svg>
