<svg width="48" height="48" viewBox="0 0 48 48" fill="none" xmlns="http://www.w3.org/2000/svg">
<g clip-path="url(#clip0_162_19)">
<path d="M8.91803 8.41599C10.41 9.62799 10.97 9.53599 13.774 9.34799L40.204 7.76199C40.764 7.76199 40.298 7.20199 40.112 7.10999L35.72 3.93599C34.88 3.28399 33.758 2.53599 31.61 2.72199L6.02003 4.58999C5.08803 4.68199 4.90003 5.14999 5.27203 5.52199L8.91803 8.41599ZM10.504 14.576V42.384C10.504 43.878 11.25 44.438 12.932 44.344L41.978 42.664C43.66 42.572 43.848 41.544 43.848 40.33V12.708C43.848 11.496 43.382 10.842 42.352 10.934L11.998 12.708C10.878 12.802 10.504 13.364 10.504 14.576ZM39.178 16.066C39.364 16.906 39.178 17.746 38.338 17.842L36.938 18.122V38.65C35.722 39.304 34.602 39.678 33.668 39.678C32.172 39.678 31.798 39.21 30.678 37.812L21.524 23.44V37.344L24.42 38C24.42 38 24.42 39.68 22.084 39.68L15.64 40.052C15.454 39.68 15.64 38.746 16.294 38.56L17.974 38.094V19.708L15.644 19.52C15.456 18.68 15.924 17.468 17.23 17.374L24.142 16.908L33.67 31.466V18.586L31.24 18.308C31.054 17.28 31.8 16.534 32.734 16.442L39.178 16.066ZM3.87203 2.06999L30.492 0.109992C33.76 -0.170008 34.602 0.0159922 36.656 1.50999L45.154 7.48199C46.554 8.50799 47.022 8.78799 47.022 9.90799V42.664C47.022 44.716 46.276 45.932 43.662 46.116L12.746 47.984C10.786 48.078 9.85003 47.798 8.82203 46.49L2.56403 38.37C1.44403 36.876 0.978027 35.758 0.978027 34.45V5.33399C0.978027 3.65599 1.72603 2.25399 3.87203 2.06999Z" fill="black"/>
</g>
<defs>
<clipPath id="clip0_162_19">
<rect width="48" height="48" fill="white"/>
</clipPath>
</defs>
</svg>
