<svg width="24" height="24" viewBox="0 0 24 24" fill="none" xmlns="http://www.w3.org/2000/svg">
<g id="octicon:person-16">
<path id="Vector" d="M15.8415 12.1095C17.3183 12.8075 18.5775 13.894 19.4843 15.2526C20.3911 16.6113 20.9114 18.1909 20.9895 19.8225C20.9998 19.972 20.9801 20.122 20.9316 20.2638C20.8832 20.4055 20.8069 20.5362 20.7072 20.6481C20.6075 20.76 20.4865 20.8508 20.3513 20.9153C20.2161 20.9798 20.0693 21.0166 19.9196 21.0236C19.77 21.0306 19.6204 21.0076 19.4798 20.956C19.3391 20.9044 19.2102 20.8253 19.1005 20.7232C18.9909 20.6211 18.9027 20.4981 18.8412 20.3614C18.7797 20.2248 18.7462 20.0773 18.7425 19.9275C18.6607 18.1943 17.9146 16.5591 16.6591 15.3615C15.4036 14.1638 13.7351 13.4956 12 13.4956C10.2648 13.4956 8.59633 14.1638 7.34083 15.3615C6.08532 16.5591 5.33925 18.1943 5.25747 19.9275C5.23727 20.2209 5.10299 20.4947 4.8834 20.6903C4.66381 20.8859 4.37637 20.9877 4.08262 20.974C3.78887 20.9602 3.51218 20.832 3.31178 20.6168C3.11139 20.4016 3.00323 20.1165 3.01047 19.8225C3.08826 18.191 3.60827 16.6114 4.51483 15.2528C5.42138 13.8941 6.68035 12.8076 8.15697 12.1095C7.21049 11.32 6.53017 10.2582 6.20855 9.06836C5.88693 7.87855 5.93963 6.61855 6.35947 5.45975C6.77931 4.30095 7.54592 3.2996 8.55502 2.59192C9.56411 1.88424 10.7667 1.50458 11.9992 1.50458C13.2317 1.50458 14.4343 1.88424 15.4434 2.59192C16.4525 3.2996 17.2191 4.30095 17.639 5.45975C18.0588 6.61855 18.1115 7.87855 17.7899 9.06836C17.4683 10.2582 16.788 11.32 15.8415 12.1095ZM15.75 7.5C15.75 6.50544 15.3549 5.55161 14.6516 4.84835C13.9484 4.14509 12.9945 3.75 12 3.75C11.0054 3.75 10.0516 4.14509 9.34832 4.84835C8.64506 5.55161 8.24997 6.50544 8.24997 7.5C8.24997 8.49456 8.64506 9.44839 9.34832 10.1516C10.0516 10.8549 11.0054 11.25 12 11.25C12.9945 11.25 13.9484 10.8549 14.6516 10.1516C15.3549 9.44839 15.75 8.49456 15.75 7.5Z" fill="#F47676"/>
</g>
</svg>
