<svg width="48" height="48" viewBox="0 0 48 48" fill="none" xmlns="http://www.w3.org/2000/svg">
<g clip-path="url(#clip0_162_21)">
<mask id="mask0_162_21" style="mask-type:alpha" maskUnits="userSpaceOnUse" x="-1" y="0" width="49" height="48">
<path fill-rule="evenodd" clip-rule="evenodd" d="M34.0376 47.6722C34.4196 47.8212 34.8281 47.8899 35.2378 47.8742C35.6474 47.8584 36.0495 47.7585 36.4189 47.5807L46.3013 42.8254C46.8102 42.5804 47.2396 42.1967 47.5401 41.7184C47.8407 41.2402 48.0001 40.6868 48 40.122V7.87837C48.0001 7.31348 47.8408 6.76003 47.5402 6.28171C47.2397 5.80339 46.8102 5.41964 46.3013 5.17462L36.4189 0.419992C35.8605 0.151307 35.2323 0.0628431 34.6214 0.166844C34.0105 0.270845 33.4471 0.562167 33.009 1.00049L14.0903 18.2602L5.85001 12.0049C5.47829 11.7226 5.0195 11.5794 4.55323 11.6001C4.08696 11.6208 3.64265 11.8041 3.29739 12.1181L0.654387 14.5222C0.448418 14.7096 0.283817 14.9378 0.171115 15.1924C0.0584128 15.447 9.02878e-05 15.7223 -0.000121491 16.0007C-0.000333271 16.2792 0.0575703 16.5546 0.169885 16.8093C0.2822 17.0641 0.446453 17.2926 0.652137 17.4802L7.79851 24L0.652512 30.5201C0.44694 30.7078 0.282785 30.9363 0.17054 31.191C0.0582953 31.4457 0.000429279 31.7211 0.000641036 31.9994C0.000852794 32.2778 0.0591377 32.553 0.17177 32.8076C0.284403 33.0621 0.448905 33.2904 0.654762 33.4777L3.29776 35.8819C3.64295 36.196 4.08725 36.3794 4.55353 36.4002C5.01982 36.4209 5.47865 36.2777 5.85039 35.9955L14.0906 29.7405L33.0094 46.9999C33.3019 47.2929 33.6518 47.5219 34.0376 47.6722ZM36.0071 13.1036L21.6525 24L36.0075 34.8967L36.0071 13.1036Z" fill="white"/>
</mask>
<g mask="url(#mask0_162_21)">
<path d="M46.3017 5.1825L36.4114 0.420001C35.8528 0.151137 35.2244 0.0625776 34.6132 0.166579C34.002 0.270581 33.4383 0.562001 33.0001 1.0005L0.623304 30.5201C0.417578 30.7077 0.253284 30.9362 0.14094 31.1909C0.0285952 31.4456 -0.029325 31.721 -0.0291132 31.9994C-0.0289014 32.2778 0.0294377 32.5531 0.14217 32.8077C0.254902 33.0623 0.419543 33.2905 0.625554 33.4778L3.27005 35.8819C3.61555 36.196 4.06008 36.3794 4.52659 36.4001C4.99309 36.4209 5.45215 36.2777 5.82418 35.9955L44.8133 6.41738C46.1213 5.42513 48.0001 6.35813 48.0001 7.99988V7.88513C48 7.32041 47.8406 6.76717 47.5402 6.28901C47.2397 5.81085 46.8105 5.42756 46.3017 5.1825Z" fill="#0065A9"/>
<g filter="url(#filter0_d_162_21)">
<path d="M46.3017 42.8179L36.4114 47.5796C35.8529 47.8486 35.2245 47.9373 34.6134 47.8334C34.0022 47.7295 33.4384 47.4383 33.0001 46.9999L0.623304 17.4799C0.417578 17.2923 0.253284 17.0638 0.14094 16.8091C0.0285952 16.5544 -0.029325 16.279 -0.0291132 16.0006C-0.0289014 15.7222 0.0294377 15.4469 0.14217 15.1923C0.254902 14.9377 0.419543 14.7095 0.625554 14.5223L3.27005 12.1181C3.61555 11.804 4.06008 11.6206 4.52659 11.5999C4.99309 11.5791 5.45215 11.7223 5.82418 12.0045L44.8133 41.5823C46.1213 42.5749 48.0001 41.6419 48.0001 40.0001V40.1149C48 40.6796 47.8406 41.2328 47.5402 41.711C47.2397 42.1892 46.8105 42.5728 46.3017 42.8179Z" fill="#007ACC"/>
</g>
<g filter="url(#filter1_d_162_21)">
<path d="M36.4117 47.5808C35.853 47.8494 35.2245 47.9379 34.6133 47.8338C34.0021 47.7297 33.4384 47.4383 33 46.9999C34.107 48.1069 36 47.3228 36 45.7571V2.24251C36 0.676885 34.107 -0.107239 33 1.00014C33.4384 0.561687 34.0021 0.27028 34.6133 0.166218C35.2245 0.0621555 35.853 0.150579 36.4117 0.419261L46.3001 5.17501C46.8093 5.41987 47.239 5.80355 47.5398 6.28188C47.8405 6.76021 48 7.31375 48 7.87876V40.122C48 40.687 47.8405 41.2406 47.5398 41.7189C47.239 42.1972 46.8093 42.5809 46.3001 42.8258L36.4117 47.5808Z" fill="#1F9CF0"/>
</g>
<path opacity="0.25" fill-rule="evenodd" clip-rule="evenodd" d="M34.0088 47.6722C34.3907 47.8211 34.7991 47.8898 35.2087 47.8741C35.6183 47.8583 36.0203 47.7585 36.3897 47.5807L46.272 42.8254C46.781 42.5803 47.2105 42.1966 47.511 41.7183C47.8115 41.24 47.9709 40.6865 47.9708 40.1216V7.87837C47.9709 7.31348 47.8115 6.76003 47.511 6.28171C47.2105 5.80339 46.781 5.41964 46.272 5.17462L36.3897 0.419992C35.8312 0.151307 35.2031 0.0628431 34.5922 0.166844C33.9813 0.270845 33.4178 0.562167 32.9798 1.00049L14.061 18.2602L5.82078 12.0052C5.44906 11.723 4.99026 11.5798 4.524 11.6005C4.05773 11.6212 3.61342 11.8044 3.26815 12.1185L0.625153 14.5226C0.419235 14.71 0.25468 14.9383 0.142011 15.1928C0.029342 15.4474 -0.0289625 15.7227 -0.0291742 16.0011C-0.029386 16.2795 0.0284996 16.5549 0.140781 16.8097C0.253063 17.0644 0.41727 17.2929 0.622903 17.4806L7.76928 24L0.623278 30.5197C0.417594 30.7074 0.253341 30.9359 0.141026 31.1907C0.0287108 31.4454 -0.0291928 31.7208 -0.028981 31.9992C-0.0287693 32.2777 0.0295532 32.553 0.142256 32.8076C0.254958 33.0621 0.419558 33.2904 0.625528 33.4777L3.26853 35.8819C3.61375 36.196 4.05804 36.3793 4.5243 36.4001C4.99057 36.4208 5.44939 36.2777 5.82115 35.9955L14.0618 29.7401L32.9805 46.9999C33.2729 47.2929 33.6231 47.5219 34.0088 47.6722ZM35.9783 13.1032L21.6233 24L35.9783 34.8964V13.1032Z" fill="url(#paint0_linear_162_21)"/>
</g>
</g>
<defs>
<filter id="filter0_d_162_21" x="-3.15436" y="8.47265" width="54.2797" height="42.5283" filterUnits="userSpaceOnUse" color-interpolation-filters="sRGB">
<feFlood flood-opacity="0" result="BackgroundImageFix"/>
<feColorMatrix in="SourceAlpha" type="matrix" values="0 0 0 0 0 0 0 0 0 0 0 0 0 0 0 0 0 0 127 0" result="hardAlpha"/>
<feOffset/>
<feGaussianBlur stdDeviation="1.56262"/>
<feColorMatrix type="matrix" values="0 0 0 0 0 0 0 0 0 0 0 0 0 0 0 0 0 0 0.25 0"/>
<feBlend mode="overlay" in2="BackgroundImageFix" result="effect1_dropShadow_162_21"/>
<feBlend mode="normal" in="SourceGraphic" in2="effect1_dropShadow_162_21" result="shape"/>
</filter>
<filter id="filter1_d_162_21" x="29.8748" y="-3.00147" width="21.2505" height="54.0029" filterUnits="userSpaceOnUse" color-interpolation-filters="sRGB">
<feFlood flood-opacity="0" result="BackgroundImageFix"/>
<feColorMatrix in="SourceAlpha" type="matrix" values="0 0 0 0 0 0 0 0 0 0 0 0 0 0 0 0 0 0 127 0" result="hardAlpha"/>
<feOffset/>
<feGaussianBlur stdDeviation="1.56262"/>
<feColorMatrix type="matrix" values="0 0 0 0 0 0 0 0 0 0 0 0 0 0 0 0 0 0 0.25 0"/>
<feBlend mode="overlay" in2="BackgroundImageFix" result="effect1_dropShadow_162_21"/>
<feBlend mode="normal" in="SourceGraphic" in2="effect1_dropShadow_162_21" result="shape"/>
</filter>
<linearGradient id="paint0_linear_162_21" x1="23.9708" y1="0.123742" x2="23.9708" y2="47.8762" gradientUnits="userSpaceOnUse">
<stop stop-color="white"/>
<stop offset="1" stop-color="white" stop-opacity="0"/>
</linearGradient>
<clipPath id="clip0_162_21">
<rect width="48" height="48" fill="white"/>
</clipPath>
</defs>
</svg>
